<mxfile host="app.diagrams.net" modified="2023-05-07T16:34:50.487Z" agent="Mozilla/5.0 (Windows NT 10.0; Win64; x64) AppleWebKit/537.36 (KHTML, like Gecko) Chrome/113.0.0.0 Safari/537.36" etag="nl_euCblzcae9hA473JE" version="21.2.9" type="github">
  <diagram name="Page-1" id="yfGdIEUOPlWsQvNqbJGb">
    <mxGraphModel dx="2074" dy="1068" grid="1" gridSize="10" guides="1" tooltips="1" connect="1" arrows="1" fold="1" page="1" pageScale="1" pageWidth="850" pageHeight="1100" math="0" shadow="0">
      <root>
        <mxCell id="0" />
        <mxCell id="1" parent="0" />
        <mxCell id="IteO2M1NPeujsxkQjgeM-1" value="" style="endArrow=none;dashed=1;html=1;rounded=0;" edge="1" parent="1">
          <mxGeometry width="50" height="50" relative="1" as="geometry">
            <mxPoint y="160" as="sourcePoint" />
            <mxPoint x="440" y="160" as="targetPoint" />
          </mxGeometry>
        </mxCell>
        <mxCell id="IteO2M1NPeujsxkQjgeM-2" value="&lt;font style=&quot;font-size: 20px;&quot;&gt;DRAM&lt;/font&gt;" style="rounded=0;whiteSpace=wrap;html=1;fillColor=none;strokeColor=none;" vertex="1" parent="1">
          <mxGeometry y="120" width="80" height="40" as="geometry" />
        </mxCell>
        <mxCell id="IteO2M1NPeujsxkQjgeM-3" value="&lt;font style=&quot;font-size: 20px;&quot;&gt;PMEM&lt;/font&gt;" style="rounded=0;whiteSpace=wrap;html=1;fillColor=none;strokeColor=none;" vertex="1" parent="1">
          <mxGeometry y="160" width="80" height="40" as="geometry" />
        </mxCell>
        <mxCell id="IteO2M1NPeujsxkQjgeM-4" value="0" style="rounded=0;whiteSpace=wrap;html=1;fillColor=none;" vertex="1" parent="1">
          <mxGeometry x="150" y="75" width="20" height="20" as="geometry" />
        </mxCell>
        <mxCell id="IteO2M1NPeujsxkQjgeM-5" value="1" style="rounded=0;whiteSpace=wrap;html=1;fillColor=none;" vertex="1" parent="1">
          <mxGeometry x="170" y="75" width="20" height="20" as="geometry" />
        </mxCell>
        <mxCell id="IteO2M1NPeujsxkQjgeM-6" value="2" style="rounded=0;whiteSpace=wrap;html=1;fillColor=none;" vertex="1" parent="1">
          <mxGeometry x="190" y="75" width="20" height="20" as="geometry" />
        </mxCell>
        <mxCell id="IteO2M1NPeujsxkQjgeM-7" value="3" style="rounded=0;whiteSpace=wrap;html=1;fillColor=none;" vertex="1" parent="1">
          <mxGeometry x="210" y="75" width="20" height="20" as="geometry" />
        </mxCell>
        <mxCell id="IteO2M1NPeujsxkQjgeM-8" value="4" style="rounded=0;whiteSpace=wrap;html=1;fillColor=none;" vertex="1" parent="1">
          <mxGeometry x="230" y="75" width="20" height="20" as="geometry" />
        </mxCell>
        <mxCell id="IteO2M1NPeujsxkQjgeM-9" value="..." style="rounded=0;whiteSpace=wrap;html=1;fillColor=none;" vertex="1" parent="1">
          <mxGeometry x="250" y="75" width="30" height="20" as="geometry" />
        </mxCell>
        <mxCell id="IteO2M1NPeujsxkQjgeM-10" value="" style="rounded=0;whiteSpace=wrap;html=1;fillColor=none;" vertex="1" parent="1">
          <mxGeometry x="150" y="95" width="20" height="40" as="geometry" />
        </mxCell>
        <mxCell id="IteO2M1NPeujsxkQjgeM-11" value="" style="rounded=0;whiteSpace=wrap;html=1;fillColor=none;" vertex="1" parent="1">
          <mxGeometry x="170" y="95" width="20" height="40" as="geometry" />
        </mxCell>
        <mxCell id="IteO2M1NPeujsxkQjgeM-12" value="" style="rounded=0;whiteSpace=wrap;html=1;fillColor=#666666;" vertex="1" parent="1">
          <mxGeometry x="190" y="95" width="20" height="40" as="geometry" />
        </mxCell>
        <mxCell id="IteO2M1NPeujsxkQjgeM-13" value="" style="rounded=0;whiteSpace=wrap;html=1;fillColor=none;" vertex="1" parent="1">
          <mxGeometry x="210" y="95" width="20" height="40" as="geometry" />
        </mxCell>
        <mxCell id="IteO2M1NPeujsxkQjgeM-14" value="" style="rounded=0;whiteSpace=wrap;html=1;fillColor=none;" vertex="1" parent="1">
          <mxGeometry x="230" y="95" width="20" height="40" as="geometry" />
        </mxCell>
        <mxCell id="IteO2M1NPeujsxkQjgeM-15" value="" style="rounded=0;whiteSpace=wrap;html=1;fillColor=none;" vertex="1" parent="1">
          <mxGeometry x="250" y="95" width="30" height="40" as="geometry" />
        </mxCell>
        <mxCell id="IteO2M1NPeujsxkQjgeM-16" value="" style="rounded=0;whiteSpace=wrap;html=1;fillColor=#CCCCCC;" vertex="1" parent="1">
          <mxGeometry x="200" y="195" width="40" height="20" as="geometry" />
        </mxCell>
        <mxCell id="IteO2M1NPeujsxkQjgeM-17" value="" style="rounded=0;whiteSpace=wrap;html=1;fillColor=#CCCCCC;" vertex="1" parent="1">
          <mxGeometry x="240" y="195" width="40" height="20" as="geometry" />
        </mxCell>
        <mxCell id="IteO2M1NPeujsxkQjgeM-19" value="" style="rounded=0;whiteSpace=wrap;html=1;" vertex="1" parent="1">
          <mxGeometry x="280" y="195" width="160" height="20" as="geometry" />
        </mxCell>
        <mxCell id="IteO2M1NPeujsxkQjgeM-20" value="" style="endArrow=classic;html=1;rounded=0;exitX=0.5;exitY=1;exitDx=0;exitDy=0;entryX=0;entryY=0;entryDx=0;entryDy=0;" edge="1" parent="1" source="IteO2M1NPeujsxkQjgeM-12" target="IteO2M1NPeujsxkQjgeM-16">
          <mxGeometry width="50" height="50" relative="1" as="geometry">
            <mxPoint x="430" y="585" as="sourcePoint" />
            <mxPoint x="480" y="535" as="targetPoint" />
          </mxGeometry>
        </mxCell>
        <mxCell id="IteO2M1NPeujsxkQjgeM-21" value="&lt;font style=&quot;font-size: 15px;&quot;&gt;Sub inode log&lt;/font&gt;" style="rounded=0;whiteSpace=wrap;html=1;fillColor=none;strokeColor=none;" vertex="1" parent="1">
          <mxGeometry x="90" y="195" width="120" height="20" as="geometry" />
        </mxCell>
        <mxCell id="IteO2M1NPeujsxkQjgeM-22" value="&lt;font style=&quot;font-size: 12px;&quot;&gt;tail&lt;/font&gt;" style="rounded=0;whiteSpace=wrap;html=1;fillColor=none;strokeColor=none;" vertex="1" parent="1">
          <mxGeometry x="260" y="160" width="40" height="20" as="geometry" />
        </mxCell>
        <mxCell id="IteO2M1NPeujsxkQjgeM-24" value="" style="endArrow=classic;html=1;rounded=0;entryX=0;entryY=0;entryDx=0;entryDy=0;exitX=0.5;exitY=1;exitDx=0;exitDy=0;" edge="1" parent="1" source="IteO2M1NPeujsxkQjgeM-22">
          <mxGeometry width="50" height="50" relative="1" as="geometry">
            <mxPoint x="400" y="610" as="sourcePoint" />
            <mxPoint x="280" y="195" as="targetPoint" />
          </mxGeometry>
        </mxCell>
        <mxCell id="IteO2M1NPeujsxkQjgeM-26" value="" style="rounded=0;whiteSpace=wrap;html=1;fillColor=none;" vertex="1" parent="1">
          <mxGeometry x="120" y="240" width="80" height="40" as="geometry" />
        </mxCell>
        <mxCell id="IteO2M1NPeujsxkQjgeM-27" value="Modify" style="rounded=0;whiteSpace=wrap;html=1;fillColor=none;" vertex="1" parent="1">
          <mxGeometry x="220" y="240" width="80" height="40" as="geometry" />
        </mxCell>
        <mxCell id="IteO2M1NPeujsxkQjgeM-29" value="" style="endArrow=classic;html=1;rounded=0;exitX=0.5;exitY=1;exitDx=0;exitDy=0;entryX=0.5;entryY=0;entryDx=0;entryDy=0;" edge="1" parent="1" source="IteO2M1NPeujsxkQjgeM-16" target="IteO2M1NPeujsxkQjgeM-26">
          <mxGeometry width="50" height="50" relative="1" as="geometry">
            <mxPoint x="400" y="570" as="sourcePoint" />
            <mxPoint x="450" y="520" as="targetPoint" />
          </mxGeometry>
        </mxCell>
        <mxCell id="IteO2M1NPeujsxkQjgeM-30" value="" style="endArrow=classic;html=1;rounded=0;exitX=0.5;exitY=1;exitDx=0;exitDy=0;entryX=0.5;entryY=0;entryDx=0;entryDy=0;" edge="1" parent="1" source="IteO2M1NPeujsxkQjgeM-17" target="IteO2M1NPeujsxkQjgeM-27">
          <mxGeometry width="50" height="50" relative="1" as="geometry">
            <mxPoint x="400" y="570" as="sourcePoint" />
            <mxPoint x="450" y="520" as="targetPoint" />
          </mxGeometry>
        </mxCell>
        <mxCell id="IteO2M1NPeujsxkQjgeM-32" value="&lt;font style=&quot;font-size: 18px;&quot;&gt;Block map&lt;/font&gt;" style="rounded=0;whiteSpace=wrap;html=1;fillColor=none;strokeColor=none;" vertex="1" parent="1">
          <mxGeometry x="150" y="40" width="130" height="35" as="geometry" />
        </mxCell>
        <mxCell id="IteO2M1NPeujsxkQjgeM-33" value="&lt;font style=&quot;font-size: 15px;&quot;&gt;Data blocks&lt;/font&gt;" style="rounded=0;whiteSpace=wrap;html=1;fillColor=none;strokeColor=none;" vertex="1" parent="1">
          <mxGeometry x="40" y="240" width="80" height="40" as="geometry" />
        </mxCell>
        <mxCell id="IteO2M1NPeujsxkQjgeM-34" value="Step 1" style="rounded=0;whiteSpace=wrap;html=1;fillColor=none;strokeColor=none;" vertex="1" parent="1">
          <mxGeometry x="200" y="140" width="40" height="20" as="geometry" />
        </mxCell>
        <mxCell id="IteO2M1NPeujsxkQjgeM-39" value="Step 2" style="rounded=0;whiteSpace=wrap;html=1;fillColor=none;strokeColor=none;" vertex="1" parent="1">
          <mxGeometry x="310" y="250" width="40" height="20" as="geometry" />
        </mxCell>
      </root>
    </mxGraphModel>
  </diagram>
</mxfile>
